/* XPM */
static char *result[] = {
/* columns rows colors chars-per-pixel */
"64 64 116 2 ",
"   c #808040",
".  c #7F7F40",
"X  c #818040",
"o  c #7A7D40",
"O  c #787C40",
"+  c #7D7E40",
"@  c #757A40",
"#  c #456240",
"$  c #3F5F40",
"%  c #3A5D40",
"&  c #2B5540",
"*  c #1C4E40",
"=  c #174B40",
"-  c #194C40",
";  c #627140",
":  c #828140",
">  c #556A40",
",  c #024040",
"<  c #0A4540",
"1  c #0F4740",
"2  c #104840",
"3  c #295440",
"4  c #325940",
"5  c #345A40",
"6  c #697440",
"7  c #3C5E40",
"8  c #0A4440",
"9  c #607040",
"0  c #737940",
"q  c #7E7F40",
"w  c #245240",
"e  c #1D4E40",
"r  c #7B7D40",
"t  c #7F8040",
"y  c #777B40",
"u  c #164B40",
"i  c #335940",
"p  c #707840",
"a  c #0E4740",
"s  c #4A6440",
"d  c #687440",
"f  c #0B4540",
"g  c #566B40",
"h  c #5F6F40",
"j  c #094440",
"k  c #617040",
"l  c #536940",
"z  c #0C4540",
"x  c #6B7540",
"c  c #486440",
"v  c #114840",
"b  c #727940",
"n  c #385B40",
"m  c #2A5540",
"M  c #235140",
"N  c #747A40",
"B  c #124840",
"V  c #416040",
"C  c #848240",
"Z  c #7C7E40",
"A  c #4D6640",
"S  c #4E6740",
"D  c #1E4F40",
"F  c #4A6540",
"G  c #054240",
"H  c #064340",
"J  c #084440",
"K  c #205040",
"L  c #506840",
"P  c #576B40",
"I  c #6A7540",
"U  c #6D7640",
"Y  c #496440",
"T  c #184C40",
"R  c #365B40",
"E  c #2C5640",
"W  c #285440",
"Q  c #2E5740",
"!  c #797C40",
"~  c #1B4D40",
"^  c #3B5D40",
"/  c #3E5F40",
"(  c #2F5740",
")  c #1F4F40",
"_  c #3D5E40",
"`  c #134940",
"'  c #677340",
"]  c #5E6F40",
"[  c #717840",
"{  c #4B6540",
"}  c #023F40",
"|  c #415F40",
" . c #818140",
".. c #255240",
"X. c #5D6E40",
"o. c #355A40",
"O. c #154A40",
"+. c #034140",
"@. c #003F40",
"#. c #5A6D40",
"$. c #074340",
"%. c #0E4640",
"&. c #546A40",
"*. c #6F7740",
"=. c #044140",
"-. c #013F40",
";. c #124940",
":. c #315840",
">. c #526940",
",. c #406040",
"<. c #034040",
"1. c #0D4640",
"2. c #044240",
"3. c #4F6740",
"4. c #516840",
"5. c white",
/* pixels */
"                                                                                                                                ",
"                                                                                                                                ",
"                                                                                                                                ",
"                                                                                                                                ",
"                                                                                                                                ",
"                                                                                                                                ",
"                                                                                                                                ",
"                                                                                                                                ",
"                                                                                                                                ",
"                                                                                                                                ",
"                                                                                                                                ",
"                                                                                                                                ",
"                                                                                                                                ",
"                                                                                                                                ",
"                                                                                  .                                             ",
"                                    .   X X X . o O O O O O O O O O O O O O O O +                                               ",
"                                      @ # $ % & * = = = = = = = = = = = = = = - ; X                                             ",
"                                    : > , < 1 2 * 3 4 4 4 4 4 4 4 4 4 4 4 4 4 5 6 X                                             ",
"                                    X 7 8 9 0 0 o q                               .                                             ",
"                                    + w e r X       t                                                                           ",
"                                    y u i                                                                                       ",
"                                  X p a s :                                                                                     ",
"                                  X d f g :                                                                                     ",
"                                  X h j k X                                                                                     ",
"                                  : l z x X                                                                                     ",
"                                  : c v b                                                                                       ",
"                                  X n = O                                                                                       ",
"                                  . m M +                                                                                       ",
"                                  o * 4                       .                                                                 ",
"                                  N B V C : : : : : : X o @ Z                                                                   ",
"                                X x < M A A A A A A S V D v F X                                                                 ",
"                                X h G H j j j j j j j J f K L X                                                                 ",
"                                : > < P I 6 6 6 6 6 6 6 U r .                                                                   ",
"                                : Y 2 0 : X X X X X X X X                                                                       ",
"                                X V T O                                                                                         ",
"                                X R e r                                                                                         ",
"                                . E W q                                                                                         ",
"                                + w Q                                                                                           ",
"                                ! ~ ^ X                                                                                         ",
"                                y u / X                                                                                         ",
"                                y u % X                                                                                         ",
"                                Z K E .                                                                                         ",
"                                  ( ) r                                                                                         ",
"                              t X _ ` @                                                                                         ",
"                                : A j ' X                                       X   .                                           ",
"                                X ] G L : .             t     X X o b b b b b [ { ] X                                           ",
"                                X p a E Z   t       .   X   @ h $ ) 1 1 1 1 1 1 } |  .                                          ",
"                                  Z .., L :   .   X X o X.o.O.+.@.f .._ $ $ $ $ $ k                                             ",
"                                  X #.$.%.&.Z : + *.S M =.-.;.:.>.U Z X X X X X X   .                                           ",
"                                    q ,.<.=.m $ W 1.@.2.K 3.b . : X                                                             ",
"                                  .   Z 4.~ a a a e 7 h o X     .                                                               ",
"                                    .   X y [ b b ! X X   .                                                                     ",
"                                                                                                                                ",
"                                                                                                                                ",
"                                                                                                                                ",
"                                                                                                                                ",
"                                                                                                                                ",
"                                                                                                                                ",
"                                                                                                                                ",
"                                                                                                                                ",
"                                                                                                                                ",
"                                                                                                                                ",
"                                                                                                                                ",
"                                                                                                                                "
};
