/* XPM */
static char *result[] = {
/* columns rows colors chars-per-pixel */
"64 64 119 2 ",
"   c #808040",
".  c #818040",
"X  c #7F7F40",
"o  c #576B40",
"O  c #5C6E40",
"+  c #7C7E40",
"@  c #2B5540",
"#  c #355A40",
"$  c #345A40",
"%  c #7B7D40",
"&  c #707840",
"*  c #104740",
"=  c #074240",
"-  c #627140",
";  c #607040",
":  c #054240",
">  c #003E40",
",  c #828140",
"<  c #526940",
"1  c #094440",
"2  c #0B4540",
"3  c #667340",
"4  c #7E7F40",
"5  c #275340",
"6  c #365B40",
"7  c #426140",
"8  c #114840",
"9  c #416040",
"0  c #014040",
"q  c #1C4E40",
"w  c #345940",
"e  c #1B4D40",
"r  c #677340",
"t  c #787C40",
"y  c #194C40",
"u  c #285440",
"i  c #4C6640",
"p  c #003F40",
"a  c #737940",
"s  c #486440",
"d  c #7A7D40",
"f  c #365A40",
"g  c #757A40",
"h  c #1A4D40",
"j  c #6A7540",
"k  c #104840",
"l  c #536940",
"z  c #777B40",
"x  c #164B40",
"c  c #406040",
"v  c #4D6640",
"b  c #3C5D40",
"n  c #0A4540",
"m  c #5A6D40",
"M  c #0E4740",
"N  c #164A40",
"B  c #5D6E40",
"V  c #637140",
"C  c #0C4640",
"Z  c #456240",
"A  c #446240",
"S  c #4E6640",
"D  c #6B7540",
"F  c #617040",
"G  c #6D7640",
"H  c #174B40",
"J  c #747A40",
"K  c #3B5D40",
"L  c #124940",
"P  c #556A40",
"I  c #6A7440",
"U  c #3C5E40",
"Y  c #4B6540",
"T  c #2A5540",
"R  c #205040",
"E  c #476340",
"W  c #0F4740",
"Q  c #717840",
"!  c #7F8040",
"~  c #697440",
"^  c #0C4540",
"/  c #797C40",
"(  c #305840",
")  c #395C40",
"_  c #2E5740",
"`  c #225140",
"'  c #7D7E40",
"]  c #1C4D40",
"[  c #767B40",
"{  c #596C40",
"}  c #2F5740",
"|  c #335940",
" . c #064340",
".. c #667240",
"X. c #1E4F40",
"o. c #0A4440",
"O. c #727940",
"+. c #215040",
"@. c #546940",
"#. c #466340",
"$. c #6F7740",
"%. c #144A40",
"&. c #305740",
"*. c #506840",
"=. c #255240",
"-. c #5F6F40",
";. c #034140",
":. c #5A6C40",
">. c #687440",
",. c #3E5F40",
"<. c #084340",
"1. c #5E6F40",
"2. c #054140",
"3. c #496440",
"4. c #235140",
"5. c #064240",
"6. c #4E6740",
"7. c #0D4640",
"8. c white",
/* pixels */
"                                                                                                                                ",
"                                                                                                                                ",
"                                                                                                                                ",
"                                                                                                                                ",
"                                                                                                                                ",
"                                                                                                                                ",
"                                                                                                                                ",
"                                                                                                                                ",
"                                                                                                                                ",
"                                                                                                                                ",
"                                                                                                                                ",
"                                                                                                                                ",
"                                                                                                                                ",
"                                                                                                                                ",
"                                                                                                                                ",
"                                                                                                                                ",
"                                                                                                                                ",
"                                                                                      . . X                                     ",
"                                                                                    X o O                                       ",
"                                            X   + +   X                             X @ # .                                     ",
"                                              + # $ %                               X @ # .                                     ",
"                                              & * = - . X                           X @ # .                                     ",
"                                            . ; : > # X                             X @ # .                                     ",
"                                            , < : 1 2 3 . X                         4 5 6 .                                     ",
"                                            . 7 8 9 0 6 X                           % q 6 .                                     ",
"                                              w e & e 2 r . X                       t y 7 .                                     ",
"                                            4 5 u   i p 6 X                         a 8 s ,                                     ",
"                                            d q f . g h 2 j . X                   . & k l ,                                     ",
"                                            z x c . . v p b                       . r n m ,                                     ",
"                                          . & M v ,   a N 8 & .                   . B n V .                                     ",
"                                          . j C o ,   . Z p A .                   , S 2 D .                                     ",
"                                          . F 1 ; .   . G * H J                   . K L J                                       ",
"                                          , P 2 I .       U p Y . X               X T R +                                       ",
"                                          , E W Q     ! . ~ ^ h g                 / h (                                         ",
"                                          . ) H t         X 6 p v . X             Q W 7 .                                       ",
"                                            _ ` '       X . r 2 ] [           X . { : l ,                                       ",
"                                          4 u }             X $ p v . X         X |  ....                                       ",
"                                          % X.$           X . 3 o.N & . X       O.L +.d                                         ",
"                                          d q 9 .             X ) > b       ! , @.0 #.. !                                       ",
"                                          a 8 Z ,           X . $.%.o.V . X   X &.1 ~ .                                         ",
"                                        . j n *.,               . Y 0 +.a .   O.8 =.+                                           ",
"                                        . ; n -..                 / 5 > &.d , m ;.E . X                                         ",
"                                        , :.2 >..               X . G y p ,.X ,.<.r .                                           ",
"                                        . 1.X.O.                  X . - W 2.3.4.e /                                             ",
"                                          % O.4                       . P <.5.;.#                                               ",
"                                        X       X                   !   X 6.q 7.l .                                             ",
"                                                                      X     / $.%                                               ",
"                                                                              .   X                                             ",
"                                                                                                                                ",
"                                                                                                                                ",
"                                                                                                                                ",
"                                                                                                                                ",
"                                                                                                                                ",
"                                                                                                                                ",
"                                                                                                                                ",
"                                                                                                                                ",
"                                                                                                                                ",
"                                                                                                                                ",
"                                                                                                                                ",
"                                                                                                                                ",
"                                                                                                                                ",
"                                                                                                                                ",
"                                                                                                                                ",
"                                                                                                                                "
};
