/* XPM */
static char *result[] = {
/* columns rows colors chars-per-pixel */
"64 64 89 1 ",
"  c #808040",
". c #7F7F40",
"X c #818040",
"o c #7B7D40",
"O c #797C40",
"+ c #7A7D40",
"@ c #7E7F40",
"# c #828140",
"$ c #727940",
"% c #596C40",
"& c #3C5E40",
"* c #205040",
"= c #184C40",
"- c #6D7640",
"; c #717840",
": c #546A40",
"> c #2F5740",
", c #114840",
"< c #014040",
"1 c #0D4640",
"2 c #245240",
"3 c #365B40",
"4 c #777B40",
"5 c #2E5740",
"6 c #104840",
"7 c #024140",
"8 c #174B40",
"9 c #375B40",
"0 c #576B40",
"q c #707840",
"w c #7D7E40",
"e c #1E4F40",
"r c #034140",
"t c #395C40",
"y c #5C6E40",
"u c #757A40",
"i c #4D6640",
"p c #255240",
"a c #767B40",
"s c #7F8040",
"d c #436140",
"f c #004040",
"g c #456240",
"h c #7C7E40",
"j c #335940",
"k c #747A40",
"l c #1B4D40",
"z c #5A6D40",
"x c #0A4440",
"c c #044140",
"v c #416040",
"b c #0B4540",
"n c #013F40",
"m c #4F6740",
"M c #607040",
"N c #003F40",
"B c #315840",
"V c #5E6F40",
"C c #154A40",
"Z c #426140",
"A c #064240",
"S c #1D4E40",
"D c #0A4540",
"F c #6B7540",
"G c #586C40",
"H c #044240",
"J c #385B40",
"K c #1C4E40",
"L c #305740",
"P c #4C6640",
"I c #446240",
"U c #667340",
"Y c #124840",
"T c #225140",
"R c #144A40",
"E c #2B5540",
"W c #305840",
"Q c #074340",
"! c #3B5D40",
"~ c #345A40",
"^ c #285440",
"/ c #054240",
"( c #164B40",
") c #496440",
"_ c #737940",
"` c #687440",
"' c #637140",
"] c #807F40",
"[ c white",
/* pixels */
"                                                                ",
"                                                                ",
"                                                                ",
"                                                                ",
"                                                                ",
"                                                                ",
"                                                                ",
"                                                                ",
"                                                                ",
"                                                                ",
"                                                                ",
"                                                                ",
"                                                                ",
"                                                                ",
"                                                                ",
"                                                                ",
"                                         .                      ",
"                                .  XXoO+@                       ",
"                             .  #@$%&*=*-X                      ",
"                           . #@;:>,<<123;                       ",
"                         . X4:56<7890qw  .                      ",
"                          o:e<r8tyu #X                          ",
"                         Xirrp%a X  s                           ",
"                         #dfghX                                 ",
"                         #:<j@ .                                ",
"                          klrg@ .                               ",
"                         .Xzxcv4#  .                            ",
"                            :bnem;.X .                          ",
"                          . .MpcN,BMs s                         ",
"                           . X+V3Cnxm                           ",
"                             . X uZASO                          ",
"                               s   tDFX                         ",
"                                 .#GH:#                         ",
"                                  X-bJ                          ",
"                                   +K>                          ",
"                                   ;,L                          ",
"                        s XX    . #PNIX                         ",
"                         @UUao.X#@zY1FX                         ",
"                         hTHRSEtIWQn!@                          ",
"                         @:~^K6QH/()+ .                         ",
"                        . X @+_`'Uk  .                          ",
"                           ]   XXX  s                           ",
"                                                                ",
"                                                                ",
"                                                                ",
"                                                                ",
"                                                                ",
"                                                                ",
"                                                                ",
"                                                                ",
"                                                                ",
"                                                                ",
"                                                                ",
"                                                                ",
"                                                                ",
"                                                                ",
"                                                                ",
"                                                                ",
"                                                                ",
"                                                                ",
"                                                                ",
"                                                                ",
"                                                                ",
"                                                                "
};
