/* XPM */
static char *_4c9e784d2c040dbaa256edeb4ee826bLf4S7dvWXUnPBpd0[] = {
/* columns rows colors chars-per-pixel */
"64 64 256 2 ",
"   c #0D0100",
".  c #150501",
"X  c #1B0400",
"o  c #1C0C05",
"O  c #1D0D09",
"+  c #160904",
"@  c #1E110A",
"#  c #1F1206",
"$  c #1E1311",
"%  c #230D02",
"&  c #2A0D01",
"*  c #210F0A",
"=  c #240700",
"-  c #231204",
";  c #2D1303",
":  c #23120C",
">  c #2B160B",
",  c #2D1A0D",
"<  c #291909",
"1  c #351B04",
"2  c #331B0C",
"3  c #3B1D0B",
"4  c #361805",
"5  c #261311",
"6  c #2C1B12",
"7  c #281815",
"8  c #321D13",
"9  c #371D14",
"0  c #300D05",
"q  c #3A220D",
"w  c #2C221A",
"e  c #342215",
"r  c #3A2315",
"t  c #35241A",
"y  c #3A261A",
"u  c #3C2A1C",
"i  c #372A1C",
"p  c #3C311D",
"a  c #3B2B24",
"s  c #431D07",
"d  c #4B1C0D",
"f  c #42230A",
"g  c #4A260A",
"h  c #562C05",
"j  c #5C3206",
"k  c #432B1C",
"l  c #4A2B1B",
"z  c #462815",
"x  c #562D18",
"c  c #4A311A",
"v  c #583617",
"b  c #4F310F",
"n  c #64350A",
"m  c #693A0C",
"M  c #663509",
"N  c #663A16",
"B  c #642914",
"V  c #442D22",
"C  c #4B2D24",
"Z  c #552E24",
"A  c #453124",
"S  c #4A3224",
"D  c #4C362A",
"F  c #4C3A2C",
"G  c #463429",
"H  c #533C2C",
"J  c #563627",
"K  c #493934",
"L  c #563C33",
"P  c #442F35",
"I  c #673829",
"U  c #683A2F",
"Y  c #6D4114",
"T  c #694219",
"R  c #78481B",
"E  c #5A412B",
"W  c #5B4335",
"Q  c #5D4A3C",
"!  c #594338",
"~  c #48463A",
"^  c #684728",
"/  c #764A25",
"(  c #7B5229",
")  c #674638",
"_  c #734D3B",
"`  c #774638",
"'  c #755139",
"]  c #6E5432",
"[  c #563C45",
"{  c #4E3A44",
"}  c #594846",
"|  c #5D5649",
" . c #5B4B50",
".. c #644D41",
"X. c #6A4B44",
"o. c #754B44",
"O. c #685649",
"+. c #765549",
"@. c #6A5A56",
"#. c #785B54",
"$. c #6F4F50",
"%. c #6C6455",
"&. c #796759",
"*. c #716957",
"=. c #786764",
"-. c #7E726B",
";. c #82512F",
":. c #8C6539",
">. c #814D1E",
",. c #8B5B4C",
"<. c #865647",
"1. c #945A4C",
"2. c #885B53",
"3. c #985C55",
"4. c #864E45",
"5. c #AD5A59",
"6. c #8A634D",
"7. c #896658",
"8. c #936355",
"9. c #9C6B5C",
"0. c #986758",
"q. c #81715E",
"w. c #98745B",
"e. c #976E42",
"r. c #A36B5C",
"t. c #A6665A",
"y. c #B8665B",
"u. c #A8735D",
"i. c #B1735F",
"p. c #866966",
"a. c #9B6C64",
"s. c #867567",
"d. c #9C7363",
"f. c #9A756A",
"g. c #887875",
"h. c #937575",
"j. c #A86C62",
"k. c #B96B65",
"l. c #A37264",
"z. c #AA7262",
"x. c #AC7B6C",
"c. c #A87868",
"v. c #B37B6C",
"b. c #BB7C6C",
"n. c #B77567",
"m. c #A87D72",
"M. c #B47D71",
"N. c #BA7C72",
"B. c #AB5F63",
"V. c #CA4F5E",
"C. c #CF5867",
"Z. c #C46B65",
"A. c #C3746C",
"S. c #C87668",
"D. c #D76874",
"F. c #C87B74",
"G. c #D87A78",
"H. c #D06D6F",
"J. c #EC677A",
"K. c #C36B5F",
"L. c #98867C",
"P. c #BA826E",
"I. c #B4836E",
"U. c #A98278",
"Y. c #B58273",
"T. c #BB8374",
"R. c #BB8679",
"E. c #BD8A7C",
"W. c #B68779",
"Q. c #B38F6E",
"!. c #A2805D",
"~. c #C8856C",
"^. c #D58B6D",
"/. c #C48474",
"(. c #CB8375",
"). c #C58975",
"_. c #C3857A",
"`. c #CC857A",
"'. c #C48B7C",
"]. c #CB8C7C",
"[. c #CC8B74",
"{. c #D48D74",
"}. c #D3847A",
"|. c #D38B7C",
" X c #DB8A7C",
".X c #D88577",
"XX c #C8937D",
"oX c #D3927B",
"OX c #DC927B",
"+X c #D99375",
"@X c #E48C7D",
"#X c #E4897A",
"$X c #E3927E",
"%X c #E39A7B",
"&X c #DC7A81",
"*X c #E87884",
"=X c #FB778B",
"-X c #F96A82",
";X c #988987",
":X c #8F8280",
">X c #A6948B",
",X c #B09590",
"<X c #B2A399",
"1X c #BAADA7",
"2X c #CB8D82",
"3X c #C48B83",
"4X c #D38D83",
"5X c #DC8C83",
"6X c #DB8986",
"7X c #C59284",
"8X c #CC9284",
"9X c #CB978A",
"0X c #D49383",
"qX c #DB9384",
"wX c #DC958A",
"eX c #DC9A8C",
"rX c #D79988",
"tX c #D99C93",
"yX c #D49394",
"uX c #E68C84",
"iX c #E49385",
"pX c #EC9385",
"aX c #E59C84",
"sX c #E99D85",
"dX c #E3958B",
"fX c #EC9489",
"gX c #E39C8C",
"hX c #EC9C8C",
"jX c #F39A8D",
"kX c #F3968B",
"lX c #EC9D93",
"zX c #E59B93",
"xX c #F39D92",
"cX c #F69C97",
"vX c #EF8B96",
"bX c #D8A58A",
"nX c #DCA299",
"mX c #C3A891",
"MX c #E5A185",
"NX c #EBA38B",
"BX c #E8A389",
"VX c #F1A58E",
"CX c #F3A98E",
"ZX c #EDA294",
"AX c #ECA399",
"SX c #E6A598",
"DX c #F3A396",
"FX c #F5A899",
"GX c #FAB29D",
"HX c #C7B6AD",
"JX c #CCB4AE",
"KX c #ECADA3",
"LX c #F6ACA3",
"PX c #F9B4A6",
"IX c #D5C2B3",
"UX c #DCD2CA",
/* pixels */
", 6 > > 6 , > > , 6 8 8 8 8 8 8 8 9 r r r y y y r y y y k k k k V V V V C k V V V S A A Z l s 4 4 > % ; 2 ; & ^ bXe.h j h h j j ",
"y t t 8 > > 8 8 8 6 , , 6 8 e y e e 8 8 e e e r e y y y k y y k u u y k k k A S V S A S S l s 3 4 ; % ; 4 ; & ^ bX:.h j h j j h ",
"&.#.@.Q y , 8 , 6 8 8 e 8 8 8 8 y t t y u y y u a D G u e r r u a V k V A A S S V S V V S l s 4 4 ; & ; ; ; & ] XX:.h j j n n j ",
"s.s.s.&.A e t 6 6 8 e e e e 8 8 e 6 t y y e 8 e ! O.Q y > 6 e 8 8 t u k k l A A S G S S S l s 4 3 3 ; ; ; ; & ] XX:.j j M M n j ",
"&.&.s.&.V e u e e e 8 e e e u u t t t t 8 > < 6 y A k > % - , e A F H H S l A V V S S G J l s 4 f f 4 ; ; ; ; ] Q.;.n M M m n n ",
"q.q.s.q.u e y e e y y u y t e 6 e t e 8 < > , e < < < 8 e 2 r H e A H H S l r , r y u k S z s s q f 4 ; ; ; ; ] Q.( M M M M M n ",
"q.q.q.&.u e e e e e t t e 6 : % > , , > > 2 8 2 2 , < e r , 2 y u A D H H H A y , 2 2 r z z s 4 s f 4 ; 4 4 ; ] !./ N M M M M n ",
"q.s.q.&.k i e e e , : - o % - : 2 r r r y k k e k A k k S H H H O.) F k z c z r , 2 2 2 r f s s f g 3 4 2 4 ; ^ w./ Y M m M M M ",
"&.s.&.&.F 6 > : : : > > > , q r S ) X.C z H E H W H E S E W k H ..H r k ! E S D 2 ; 4 z z 3 4 s g b 3 1 1 1 ; ^ Q.:.Y M M m M m ",
"&.s.s.%.D > > % % > e u k k k S H ) ..H D ! ..+.Q F W ..O.H 2 L ..H E ....O.O.H k y 3 3 q 3 3 3 g b f 1 1 1 ; ^ Q.:.m n M M M M ",
"&.*.@.u < # : o o : , e k D W ) Q ....A e y V F D Q &.#.Q V , A y V L F V ! Q y u S A r 3 9 9 z g g f 1 3 2 ; ) !.^ j n n m m M ",
"&.&.-.F - o : 6 - , y A H E E H O.&.&.Q A V r 2 C O.p.X.H D k V k C k k W ) V - > S D u k V k r f f 3 1 9 2 ; ) 6.b g N m N m m ",
"s.&.@.G o - - e y V D ! ..O...) O.O.Q k r D ) X.) ) ) ) _ _ U J J Z J _ +.C % = 8 H L V D L S y 1 4 4 4 8 9 & ) _ s g N N N m m ",
"O.F , : o e r A ....) ..O.#.+.X.H J H L ) +.8.c.8.,.,.8.9.9.8.,.1.<.9.l.<.U Z 3 3 L F , - : % - ; ; ; > 8 , % ) _ g g N Y Y Y Y ",
", , 8 V V F ..+.&.&.#.+.+.X.W J ) ) _ <.8.l.v.8X].oXoXoXoXoXoX~.).P.b.i.0.u.6.x J +.) V e 8 > 8 , , > , 8 > % ^ 6.^ j n Y R Y R ",
"X - 8 V L W &.#.+.+.+.) ) X.X.X.o.,.c.Y.'.rXrXrXgXaXaXsXaX%X%X+X^.+X{.[.[.P.0.,.U _ W D Q Q A a 9 8 6 6 e , % E Q.:.Y n Y R Y R ",
". < > e G ..&.7.+.+.o._ ' <.0.u.i.~.oXOXaXsXBXsXsXsXBXBXBXaXaXaXrXrXoX+X+X{.[.[.i.<.v l A i 7 w # 6 - : 6 : < c Q.( Y M R R R / ",
"6 t F L ! ! W +.+.2.8.9.u.v.P.).oXrXMXMXsXNXNXBXNXNXNXNXNXsXsXaXMXOX+X{.{.{.{.{.{.u.` x S D a t < : o o + . % c !.( n m R R R ( ",
"Q D F G D ) U 2.9.c.I.).oXqXrXrXgXNXNXNXNXZXVXNXNXNXNXDXNXBXsXMX%X%X+X+X+X+X^.^.^.[.b.1.` I Z 9 F t # o + + + = w.( j Y R R R >.",
"} K u % 9 ) 2.c.T.).oXrXsXsXsXsXMXMXMXMXBXNXVXNXBXsXsXBXBXsXsXaX%X%X%X%X%X+X^.^.~.~.)./.v.v.r.+.D u 8 O     . . ' ] h Y R R R >.",
"t a 6 = 3 ` l.).].oXOXsXaXsXsXsXMXMXMXMXsXBXsXaXsXsXsXsXsXsXsXaXsX%X%X+X+X+X+XOX{.S.b.~.P.b.b.z.6.H , o + O O . l E b T R R R >.",
"5 6 % 2 J <.z.).[.oX%XsXsXsXsXsXaXaXMXMXsXsXsXaXsXsXsXsXsXBXsXaXOXOXOXOX{.{.[.[.|.~././.b.i.i.z.c.+.H V 5 . + : - q b T R ( >.R ",
"6 o % z _ 0.u.~.[.{.$XaXaXaXaXaXaXaXaXMXBXsXsXsXNXVXVXVXVXVXsX$X{.{.|.(./.b.n.v.r.0.1.0.v.P.n.r.u._ l k t 7 $ O . o f v T / ( ( ",
"@ . 6 C _ 9.r.~.[.{.+XOXOXiXaXsXMXMXBXBXBXsXsXBXVXCXFXFXFXCXsXOXaX0X/.n.r.r.l.l.x.Y.r.4.1.r.z.u.r.,.I 9 : 7 7 @ +   1 g v T R ( ",
"a 6 8 l 6.t.~.~.^.{.OXaXsXBXBXMXMXBXCXCXNXVXFXFXGXLXPXFXFXSXSX8XY.l.0.c.tXKXSXSXSXeX8XT.z.0.r.c.0.9.6.H 6 @ $ O + O . , c x / / ",
"K t k l 6.z.b.S.~.{.$XaXsXNXVXCXBXCXGXFXNXNXFXPXPXPXPXKXKXnX3Xr.3.4.v.KXLXSXSXtXwXeXwX8X_.n.z.r.r.9.6.W , o O O O O   , c g N N ",
"a . ; 3 <.I.P.[.oXoX0XqXgXDXFXFXFXGXGXGXGXZXAXPXAXKXPXtXE.9.,.` 4.N.SXeX4X].(.F.|.qX0X|.].]./.n.t.9.w...e . : 9 9 y - r v b j N ",
"P o - k 6.w.u.P.XXrXeXeXeXgXgXhXFXPXFXZXGXLXAXLXAXeX_.1.` ` ,.9.2XSXgX0X].b.n.`./.`.].0XrXrX0X[.z.r.d.&.A : 6 V C L k z v v T ( ",
"| K u S ) ) ^ ^ <.9.Y.'.'.2XrXgXgXFXZXqXlXFXlXgXeXn.1.;.4.t.3X9X2X].8X8XT.v.j.1.1.t.n.XXeXbXeXeX[.z.0.7.Q y 9 z Z U x s v ^ / ( ",
"| | F u J _ 6.<.` ` ` o.4.1.1.3.k.5XdX5XdXAXAXeX`.y.5.k.`.2X2XN.T.l.4.U I x ` l.0.t.b.0XBXMXMXBXqXb.9.w.#.H l Z ` 4.U d N ( ( R ",
"| *.O.H _ Y.tXtX8XR.j.0.0.3.1.;.1.z././.4XSXLXFX0Xn.b.].wX/.n.j.t.yXR.<.2.a.M.tXtXtXbXBXBXsXaXaXOX(.x.d.7.) U 2.j.N.3.N x / ( / ",
"| %.&.) _ M.N./.N.F.2XyX0X0X8X2XP.P.v.u.v.rXSXSX8Xn./.eXSX`.A.n.3XyXyX9XyXnXnXnXtXtXgXgXsXsXsX$X$X{.z.w.w._ ` j.yXeXF.` h N / ;.",
"O.@.@.O.L 0._.j.t.j.v.'.9X8X_.M.Y.R.R.T.n.2XLXFXdX}.F.`.eXSXSXtXtXtXtXnXSXSXSXnXSXSXgXNXNXhXiX$XOX`.P.u.0.o.6.a.3XtXn.k.B d N ( ",
"O.@.O.O.A o.W.c.3.1.,._ U I U ` 7X7XR.M.b.wXLXzXdX5X}.}.|.4XwXgXtXtXSXSXKXKXKXKXSXAXzXhXhXfXpX$XOXF.v.x.9._ <.W.x.2X4X`.B s N ( ",
"| O.O.%.i H f.9.I 4.d.f.2._ +.a.7X9X8XT.n.].FXZXdX5X X X.XF.|.dXzXzXAXAXFXFXFXAXZXZXhXhXhXfXpX$X X(.n.z.9.` 2.3X2X2XwXF.B s v T ",
"%.%.O.*.p k d.8.4.0.W.,X,XU.,XnX9XtX9X_.n.A.gXZXiX.XG. X5X.X.X5XhXlXlXxXxXxXxXhXxXxXjXfXpXpX$X X~.(.N.z.8.` 4.,X3X2XtX0.s 4 v ] ",
"@.O.| O.u z m.M.T.v.x.Y.7X8XtXzXnXeX].F.n.k.|.dXiXG.S.F..X.X.X@XfXfXjXxXxXxXxXxXjXjXjXfXpXpX@X X|.b.z.j.3.` 2.KXnXnXE.I 0 s v ] ",
"@.@.%.@.V z c.2X/./._.].rXeXdXdXgXqX`.(.k.y.S.iXiX.XZ.K.Z.S.G.uXpXfXkXjXjXjXjXjXjXxXxXfXfXiX5X.X(.n.r.0.3.+.o.f.U.a.) 0 s I N N ",
"O.O.@.| k 3 8.T.(.|.qXqX X XuXuX XqX X}.y.5.Z.iX@X.XS.y.y.y.S.G.uXuXfXfXpXpXpXkXjXcXDXhXdXiX|.(.i.t.j.l.a.2.2 X = = & s x ^ ^ / ",
"7 7 w < - 4 ,._.(.|.{.{. X@X#X#X.X$X X.XZ.y.Z..X.XG.S.Z.K.y.k.Z.G.#XuXuXuXpXkXjXxXDXDXhXiX5X}.F.i.0.j.m.f.7.k 8 u % ; H J v N N ",
"- : - - - ; U R.`.}.#X@X#X@XOX X@X.X$XiXS.k.}.dXzXdX5XF.F.F.S.S.y.S.#X@XuXkXjXjXDXcXxXdXqX5X/.j.1.z.x.x.c.7.l 2 G % l c b v b N ",
": : # - # % l ,._.}. XuX@X@X#X#X$X@XfXiXS.A.wXAXLXLXlXwX5X5XiXpXF.Z.H.uXjXjXFXGXFXDXfXdX5X(.k.3.t.n.Y.x.c.f.C = 9 & q c v v g N ",
": 5 @ @ - o > Z M.]. X.X@XpX@XpX$XpXhXiXA.A.5XgXlXlXdX}.F.F.F.F.F.K.S.uXkXpXfXxXDXlXqX4X].n.3.t.n.b.R.v.m.m.Z X & & & f v b g v ",
"5 5 @ @ : # % 4 o.Y.wX|. X@X@XkXuXiXhX5XA.k.A.A.k.A.A.A.F.F.A.Z.Z.H.@XjXxXxXDXlXdXdX4X].T.t.1.v._./.R.v.W.c.Z 0 9 & & 3 b g g v ",
"5 5 : @ @ : : - 4 <.E.0X5X.X.XpXdX5XqXqX}.k.y.y.k.A.F.F.6X6X}.G.}.fXDXFXlXDXFXgXwX0X/.N.v.0.0._._._.R.T.E.8.Z l l & 3 l z b g x ",
": : : * @ @ : : X k X.a.'.].`.wXgXqX|.qX5X(.A.A.4XdXdX5XwXwXdXdXFXAXAXFXAXAXSXeXeX0XN.v.z.0.l.R.'.].).'.E.+.J J 2 X z J z b g v ",
": : : : O * : : : % > C +.9.x.T.qX4X|.|.qX|.5XdXzXZXgXdXlXFXLXPXLXSXSXLXLXLXSXSX8X'.T.v.j.t.c.R.].].'.7Xl.o.7.L 9 % ; z z g z x ",
": % : : * * 5 : O : : = & Z +.,.'.|.|.`.}.|.dXZXFXFXgXdXFXPXLXAXKXLXPXPXKXSX0XT.T._.'.N.r.0.M.2X0X].'.'.,.o.U.W L k X 4 l f z b ",
": : : * * * * * : o : 6 : o G #.f.R.'._.|.dXxXcXLXcXvXvXvXuXuXuXyXyXvXvX&XH.Z.F.eX2XT.v.z.z.v.].8X8XE.9.` f.U.#.Q L.&.X = z r z ",
": : : : * O * * : o : 6 7 : 6 y o.8.c.T.F.A.H.G.G.G.D.D.D.D.D.D.D.&X*X&XD.H.G.dXqX].P.v.x.v.T.XXE.9XE.` 6.W.m.p.L } <X>Xy . r y ",
": : : * * O * * : : * * : : : o , Q 7.a.j.j.5.y.V.V.V.V.V.V.C.C.C.-X=X*XD.G.&X5X`./.b.I.I.I.R.'.E.9X8.` x.Y.W.f...9 O.<X<XK . : ",
": : : * O O O * * : : o * : 6 5 - 6 D #.a.3.5.C.D.D.J.J.J.-X=X=XvXvX=XJ.G.&X6X4X/.T.T.T.T.Y._.'.9Xl.^ l.Y.Y.W.U.p.L P  .;Xp.P 7 ",
"* : : * O O O * o : : > : : : : 5 o * C +.3.B.Z.D.J.J.J.J.-X=X=X*X*X*X&X5X4XF.n.T._.'._._._._.E.x.` 8.E.T.'.c.W.m.X.G } :X;X@.a ",
"* * * * O O O O * o : : : : : : o 8 7 X 9 o.3.3.Z.D.D.D.D.D.D.D.H.A.n.n.N.N.T.'.'.8X0X2X'._.T.M._ ,.E.Y.).).I.R.l.f.#.L =.;X-. .",
"* * * O O o O O : * o o : : : 7 5 7 5 5 8 G ) 2.3.5.5.B.y.k.k.k.A.F.`.].XX'.).].0XqXwX0X'.Y.d.,.+.W.7XR.].b.].T.E.a.f.p.s.:X:X .",
"* * * O O o O O o : : o o : : * 7 5 O 7 ~ | | ..7.0.l.j.v.R.7X8XqXdXwXwXrXrXrXeXeXgXrX].R.c.,.) W.7X7X2XP.)./._.Y.l.f.#.=.<XHX;X",
"o o @ : @ + + O o O + o 5 * o : : . w K =. .g.#.X.U.c.T./.}.iXpXpXpXpXfXhXgXgXbXrXrX9XE.d._ _ c.E.XX7X2X]././.).P.x.h.h.@.>X1XUX",
": O + + O O O O + : o * * * 7 * o a | =. .g.=.=.$.#.c.x.].`.}.5X X@XiXfXhXdXqXrXSX8XR.v.4.` l.E.XX7X2X2X2X].[.).T.m.m.p.@.g.<XIX",
"@ @ O o o O o . + . o O o O O o 6 g.HX@.g.:X=.s.! ) 7.l.'.].`.(.|.}.|.5XwXwXwXrX].2Xx.I I x.7X9X7X7X2X2X4X|.[.)._.m.p.[ }  .L.<X",
"+ @ : @ + + o O : . 5 O : O . } L.<X;X1Xg.-.;X=.G s.7.0.l.Y.8X8X4X2X2X4X8X2X'.R.v.1.I 1.8X3X'.'.XX].2X4X4X|.[.)._.W.2.L { P =.;X",
"o @ @ o + o : : . + * . o a @.<XJXg.>X1X1X;X:XK a >XU.w.0.9.c.Y.E.E.E.E.W.x.l.8.<.<.R.7XR.7XE.7X'.'.2X4X4X|.[.).Y.,Xp.X.[ P @.;X",
"@ o + O O + . . O : * } s.@.s.1XL.<XHX;XUXHX} a ! ,XmXw.c.c.0.l.9.9.8.8.8.0.0.8.Y.7XE.E.W.R.9X'.'.].2X4X4X|.].'.R.U.#.[ { { @.>X",
"O + o @ O . . O : } HXHX@.=.>X@.g.JX<X<X1Xg.@.} =.1XJXd.c.Y.Y.Y.M.x.c.l.c.Y.E.7XW.8X7XY.'.8XN._.'.].2X4X0X4X].'.E.m.$.[ { { @.<X",
"O o O O . . 6 K g.g.;XO.=.>X=.=.s.>XHX>X-.=.@.} Q JXIX9X0.u.R.v.T.T.M.v.x.v.M.v.T.v.v._.T._.2X'.'.'.'.2X0X0X].R.Y.m.h.@. .{ @.1X"
};
