/* XPM */
static char *_f39294e655f4caaf4a7df7092bd19bfR75nDJZoHvFpQ2WQ[] = {
/* columns rows colors chars-per-pixel */
"64 64 256 2 ",
"   c #10100E",
".  c #13110E",
"X  c #141412",
"o  c #191614",
"O  c #1C1916",
"+  c #1E1C19",
"@  c #29180E",
"#  c #231B16",
"$  c #281B15",
"%  c #231D1A",
"&  c #2F2417",
"*  c #26211C",
"=  c #2C231C",
"-  c #38261D",
";  c #2B2624",
":  c #312522",
">  c #362A26",
",  c #3C2C23",
"<  c #3B2D2C",
"1  c #393127",
"2  c #3C312C",
"3  c #272E33",
"4  c #383534",
"5  c #442A1E",
"6  c #572B19",
"7  c #67261C",
"8  c #432D27",
"9  c #562B24",
"0  c #44332C",
"q  c #4A3329",
"w  c #563628",
"e  c #5C3B2C",
"r  c #473834",
"t  c #4C3B33",
"y  c #533C35",
"u  c #583C36",
"i  c #653B28",
"p  c #74332D",
"a  c #663E34",
"s  c #5F422C",
"d  c #4B433B",
"f  c #564237",
"g  c #5C433B",
"h  c #634333",
"j  c #6C4730",
"k  c #694638",
"l  c #6C4A3C",
"z  c #764839",
"x  c #79523B",
"c  c #354749",
"v  c #574846",
"b  c #52514C",
"n  c #684B44",
"m  c #784D44",
"M  c #6C5247",
"N  c #735243",
"B  c #7C5344",
"V  c #73544C",
"C  c #795748",
"Z  c #7C5B4C",
"A  c #665A56",
"S  c #785B55",
"D  c #716358",
"F  c #776A66",
"G  c #75716D",
"H  c #8D3B39",
"J  c #83483C",
"K  c #984D36",
"L  c #86553B",
"P  c #8B3E41",
"I  c #894A44",
"U  c #954946",
"Y  c #835345",
"T  c #885748",
"R  c #845C4C",
"E  c #8B5C4B",
"W  c #965848",
"Q  c #845955",
"!  c #835C54",
"~  c #8B5D53",
"^  c #9A5453",
"/  c #A75757",
"(  c #B05755",
")  c #89614C",
"_  c #98654B",
"`  c #846456",
"'  c #8D6254",
"]  c #85635B",
"[  c #8B645A",
"{  c #8C6A5D",
"}  c #946554",
"|  c #9A6554",
" . c #9A6957",
".. c #93645B",
"X. c #946B5D",
"o. c #9B6B5C",
"O. c #9D705F",
"+. c #A76858",
"@. c #A36C5B",
"#. c #B46E5A",
"$. c #A6735B",
"%. c #B85C62",
"&. c #896865",
"*. c #946D63",
"=. c #9B6C63",
"-. c #976B68",
";. c #8A786C",
":. c #967164",
">. c #9C7365",
",. c #9D756A",
"<. c #9A746C",
"1. c #887375",
"2. c #9A7575",
"3. c #A66C64",
"4. c #B66963",
"5. c #A37365",
"6. c #AB7365",
"7. c #A97A65",
"8. c #A3756B",
"9. c #AB756B",
"0. c #A4796C",
"q. c #AB7B6C",
"w. c #B67768",
"e. c #B37C6D",
"r. c #BB7A6D",
"t. c #AC7D73",
"y. c #A87A74",
"u. c #B37D72",
"i. c #BC7D72",
"p. c #B87976",
"a. c #CA594E",
"s. c #C66B69",
"d. c #D26F63",
"f. c #D76C63",
"g. c #C4776A",
"h. c #D9756C",
"j. c #C57A73",
"k. c #D57B7B",
"l. c #948579",
"z. c #AF806B",
"x. c #B9826A",
"c. c #AE8173",
"v. c #A7847A",
"b. c #B38375",
"n. c #BB8474",
"m. c #B98977",
"M. c #B5857A",
"N. c #BB867B",
"B. c #BC8A7C",
"V. c #C5876D",
"C. c #D0936D",
"Z. c #C38276",
"A. c #C88977",
"S. c #C48479",
"D. c #C38C7C",
"F. c #CB8B7D",
"G. c #D58979",
"H. c #C89179",
"J. c #CC947D",
"K. c #D4947C",
"L. c #DA937D",
"P. c #D4997B",
"I. c #E28976",
"U. c #DA7C83",
"Y. c #5A9A94",
"T. c #988986",
"R. c #948D8D",
"E. c #A88789",
"W. c #B98787",
"Q. c #BD8B82",
"!. c #A6998E",
"~. c #B28F93",
"^. c #BA9795",
"/. c #ADA496",
"(. c #A0A0A4",
"). c #B9AEAB",
"_. c #C38D83",
"`. c #CB8D83",
"'. c #C78B89",
"]. c #D58A85",
"[. c #C59283",
"{. c #CB9484",
"}. c #CE9985",
"|. c #C5928B",
" X c #CC948B",
".X c #CD998A",
"XX c #D39484",
"oX c #DB9583",
"OX c #D49B85",
"+X c #DA9C84",
"@X c #D3948B",
"#X c #DA938B",
"$X c #D49C8C",
"%X c #DA9D8D",
"&X c #C88D99",
"*X c #CB9792",
"=X c #D59C92",
"-X c #D79A96",
";X c #DB9D92",
":X c #E3888B",
">X c #E19684",
",X c #E49B86",
"<X c #E49D8B",
"1X c #E99A8C",
"2X c #E59793",
"3X c #E39C94",
"4X c #EA9C94",
"5X c #DAA187",
"6X c #DCA28B",
"7X c #C9A999",
"8X c #DDA293",
"9X c #DCA39B",
"0X c #DCA79C",
"qX c #E3A28C",
"wX c #E5A68C",
"eX c #E2A394",
"rX c #ECA494",
"tX c #E5A995",
"yX c #EBAA95",
"uX c #E3A59A",
"iX c #EBA59B",
"pX c #E5AA9B",
"aX c #EBAC9C",
"sX c #F1A699",
"dX c #F1AD9D",
"fX c #E6B399",
"gX c #EEB29C",
"hX c #F2B29C",
"jX c #DCA6A2",
"kX c #C1B9AB",
"lX c #E4ACA3",
"zX c #E7AAA7",
"xX c #ECADA1",
"cX c #F3AEA4",
"vX c #EDB1A3",
"bX c #ECB3AB",
"nX c #E8B5A9",
"mX c #F3B3A2",
"MX c #F7B6A9",
"NX c #EEB7B2",
"BX c #F6BCB2",
"VX c #CCC4B5",
"CX c #F2C3B2",
"ZX c #F7C4BC",
"AX c #81CFCA",
"SX c #D9D3CA",
"DX c #ECD7CE",
"FX c #E9E3DB",
"GX c #F9E4D5",
"HX c #C7E3E3",
"JX c #E7EBE8",
"KX c #F3ECE4",
"LX c #FAE9E1",
"PX c #F8F2EC",
"IX c #F8F6F4",
"UX c #FDFCFB",
/* pixels */
"v * + % 8 ) B.@X$X%X%X8XtXpXpXuXlXjX0XlXnXbXNXNXNXNXNXNXNXNXBXBXNXbXnXnXjXjX*XW.2.` ! &.&.&.&.-.t.|. X_.B.M.b.b.b.>.n r % . o + ",
"A = O O 0 R B..X$X$X%X8XtXpX8X=X=X*X*X=X9XjXzXzXbXbXNXNXbXbXbXbXnXlXlX9X*XQ.0.` n y v v n M V V ` t.|._.B.M.b.b.b.,.N 0 % o O ; ",
"G ; # O > ! B..X@X6X6XeXuX8X`.M.t.q.8.q.M.Q.|.-X;XlXzXbXnXnXbXnXlXlX9X|.p.-.N y < > < 2 < r g g g B 0.Q.Q.M.b.b.u.0.Z 0 % o % ; ",
"Y.; * o < ` D..X@X$X6XeX0XH.o.R R N l n V ~ 3.u._.=X9XjXlXnXnXnXlX0X=XN.=.B w 8 > : < < < 4 y u u e z 0.N.M.b.b.u.t.S r % o O = ",
"Y.4 % O 2 [ D.}.$X$X6X8X{.} l h u q r r y u z ..8._.=X9XpXlXxXlXpX9X Xu...m a y y r n V S S F S M h i Z t.b.b.b.u.t.! 0 % o o * ",
"Y.c % % r X.D.{.}.OX$XOX| j u y q 8 0 < 8 0 w C ..9.`.8X9XpXlXlX0X-X'.t.*.! N l n S &.-.2.y.2.2.&.S n k X.b.b.b.b.t.` r % o X < ",
"AXY.% + t *.[.{.}.}.@X7.x k n n M n v r 0 0 w k [ =.N.$X8XpXpXlX9X$X_.y.*.[ [ [ [ *.<.y.y.t.t.y.2.-.Q n Y t.b.b.b.b.! 0 * . X 4 ",
"HX(.; + r :.[.{.}.}.m.) Z S &.<.2.-.] S V l z B ' =.u.}.8XpXpXlX9X@XB.q.=.=.*.X.*.,.0.t.t.M.u.t.y.8.-.[ B =.M.b.b.b.` 8 # . X v ",
"JXkX1 + r :.[.}.}.H. .B ] :.v.M.M.b.0.:.{ ' E E ' X.9.H.8XpXvXxX0XOXn.0.=.=.X.X.X.....o.=.5.6.9.0.5.8.-.~ } c.b.M.M.] 0 O . X v ",
"IXSXr * 0 X.[.}.J.x.L R *.t.m.D.D.D.b.5.' T Y E ' ..5.A.6XfXbXvX8X}.b.5.>.=.X.' T B ~ :.:.X.E | 5.3.5.8.=.o.t.M.M.M.] 0 + . X b ",
"UXFXd * 0 *.{.}.D.o.R *.y.b.n.n.V.x.$.E x z z m E } o.n.6XgXBXbXpX{.e.5.=.*.} Y B Q ` { &.*.X.E } 5.5.9.0.=.y.b.M.M.{ , O X . A ",
"UXFXd * 1 { {.{.D.5.*.8.q.x.x.7.@.@.0.:.R m z z L E  .x.6XvXCXMXpX{.e.=.-.*.' Y T n q 8 < q z E T } 5.9.t.9.q.b.b.M.*., O o . A ",
"UXFXd * 1 { {.{.D.5.>.0.q.e.$.W _ 0.{ C B B Y Y L E  .w.+XgXCXBXaX{.9.=.-.*.[ E z v ; 3 3 # 5 k L L @.7.u.u.u.b.b.M.:.0 + o X A ",
"UXPXD = , { {.}.D.u.7.7.q.$.W _ E i r < - a m ' ..'  .w.OXaXMXMXaX`.6.=.-.<.-.J S R.t 3 3 @ y v i L _ 6.u.b.b.M.M.M.,.y * O X b ",
"UXIXG % 2 *.{.}.D.n.e.e.7._ L T w @ 3 4 : F S T 0.8.@.w.K.rXmXmXiXF.6.8.8.v...Q R.(.A = o - A F w x _ 6.e.b.M.M.M.m.7.g * o X d ",
"UXIX;.% 2 :..X.XD.n.x.e.$.L L h v - ; 4 5 T.R.Q +.B.w.r.L.yXmXmXrXF.9.0.b.b.^ -.E.).1.w 5 e 1.-.j z | 6.b.m.B.m.M.B.c.n # X o 2 ",
"UXIXG * 1 :.{.}.H.A.m.x.@.L i M G w $ @ s !.(.8.+.C.C.V.L.sXMXmXiXF.e.t.B.n.$.6.w._.~.2.&.&.y.=.E T  .6.b.B.B.B.M.N.M.M # . o 4 ",
"UXIXF ; > :.}.}.J.D.V.x._ L i 1.R.n 6 6 S ~.W.w.#.C.C.V.L.sXMXMXiX#Xw.b.D.[.{.Z.Z.S.'.^.~.W.t.3.o.o.3.6.n.[.D.B.N.N.M.V O . + A ",
"UXIXF * 2 ,.}.OXJ.F.V.x._ L T 8.E.2.) *.E.M.r.r.H.P.K.G.oXsXMXMXdX#Xi.M._.{..X`.Z.S.{.|.W.W.N.e.6.9.b.e.B.[.[._.B.N.M.V # . * G ",
"UXIX;.% 2 0.}.OXJ.H.A.x.+._ $.$.u.Q.^.|.|.N.Z.F.$XP.K.G.>XsXMXMXcX#Xi.N.'._. X XF.S.`.`.'._.N.i.e.z.m.D.J..X.X[._.N.b.Z = . # V ",
"UXUXT.: 0 c.OXOXOXJ.H.x.#.w.w.w.r.i.N.'.`.S.F.XXOXK.L.L.>XsXMXMXcX#Xj.Z.`.{..X*X@X`.`.`.D.Z.n.n.n.n.m.{.XX@X$X{._.M.b.` : X # Q ",
"UXUX!.> r b.$X$XOXOXJ.V.V.V.V.V.F.D.F.@XXX`.XX$XXXoX>X>X>XiXMXBXaX].j.Z.F.XX$X=X-X-X-X@X`.F.S.Z.S.D.D..X$X$X$X}._.N.b.[ 2 X , =.",
"UXIX/.r t m.$XOX+X+XP.H.H.H.H.H.K.XXXXXX@X$X%X$XOX+X,X>X>XrXMXBXxX].j.Z.F.XX%X=X-X-X-X-X-X=X.X{.{.{..X$X$X=X$X}.[.m.M.*.0 o y t.",
"UXPX7Xd t m.$XOX+X5X+XP.P.P.P.P.P.OX%X%X;X8X9X%X+X,X,X,X>XrXMXBXaX].j.Z.F.XX%X;X9X9X-X-X-X-X=X=X$X$X$X;X;X%X$X.X[.B.M.:.0 o h p.",
"IXGXfXt d m.$XOX+X5XqX5X5XP.+X+X+X6XeXuXuX0XpXeXqX,X1X,X>XrXMXMXiX].Z.S.F.].%XeX8X9XjXjX9X-X-X-X=X;X8X9X;X;X$X.XD.m.M.>.0 o m N.",
"LXCXgXh d B.OX+X5XqXwXwXqX+X+X+X6XeXeXuXlXlXpXyXwX,X1X,X>XrXMXMXiX].Z.Z.S.].#X3XuXuXuXlXjXjX9X-X=X;XeXuX8X;X$X{._.M.M.8.t # ~ S.",
"ZXI.<Xl f B.OX+X5XqXyXyXwX6X6X6X8XeXuXuXlXaXaXyX1X1X,X>X>XrXMXMXiXF.Z.S.F.`.@XuXaXiXpXpXuXlX9X-X8XeXuXeX3X%X@X{._.N.M.,.r * ..i.",
"NXa.G.l y B.OX5X6XwXyXhXyXtXqX%XeXuXpXpXvXgXhXyX1X<X,X>X>XrXMXMXiX].Z.S.S.F.XXuXxXxXiXiXuXuXuX;X8XuXiXeX;X@X@X`._.N.b.>.r * ..w.",
"NXa.d.l y B.OX5X6XrXaXhXaXyX<X%XeXpXaXaXgXmXhXrX1X<X<X>X>XrXmXmXiXXXZ.Z.S.`.@XeXiXxXxXiXiXuXeX3X3XeXiX3X;X@X@X'.N.N.b.,.y = ..9.",
"CXa.a.k f B.OX5X6XrXdXdXaXyX<X<XtXaXyXaXhXdXsXyX<X<X<X>X>XsXmXcXiX#Xj.j.S.`.$XeXpXiXxXxXiXiXiXuX3X4X4X2X#X@X@X'.N.M.b.,.y % ~ u.",
"ZXf.a.h f B.$X6X%XrXyXdXyXrX1XqXtXrXyXhXdXdXdXyXqX<X,XoX>XsXmXcXxX%XZ.i.Z.F.XX;XpXaXiXxXaXiXiXuX3X2X2X#X@X#X`.`.N.M.M.>.g = Y u.",
"DXh.a.h d B.6X6X%XtXrXiXsXrXrX<XwXrXdXmXhXmXhXyXqX,X+XL.,XsXmXcXiX;XF.r.r.S.XX;XpXxXiXxXxXiXiXuX3X2X2X#X@X#X'.'.N.M.c.>.f = z W ",
"DXh.d.k t B.$X$X%XeXrXiXrX4XrX1XrXiXdXdXdXmXhXyXqX+XL.oX1XdXMXMXxX;X].r.r.Z.XX;XpXxXxXvXxXiXiXuX3X;X#X#X#X@X'.'.N.b.t.8.n - z U ",
"DXh.h.z t m.$X$X%XeX3X4X4X4X4XiXsXdXdXsXdXmXgXyX,XL.L.>X4XmXBXBXmX3X#Xj.r.r.XXeXpXxXvXvXxXaXaXpX3X;X#X@X@X X'.'.N.b.t.8.M - I / ",
"DXh.h.T d m.@X$X%X3X3X2X2X4X4XrXdXdXdXdXmXmXaXyX+XG.L.,XiXMXZXBXbXeX#XS.i.w.`.uXaXxXvXvXaXaXaXpXeX;X;X@X@X X'._.N.b.t.8.M 8 T +.",
"DXh.G.| f b.}.@X%X;X3X3X2X4X4XrXdXmXmXmXmXmXaXrX+XG.oX<XiXBXZXZXbXeX#XF.i.r.D.9XaXaXxXvXvXaXaXpXeX;X;X@X*X*X|._.N.M.t.,.M 8 ..4.",
"DXI.I.@.u b.{.@X%X;X;X;X2X4X4XiXdXmXmXmXmXmXaXtX5XG.oX%X<XmXBXNXnX;X].S.i.i.Z.;XxXxXxXvXvXaXaXpXeX;X=X=X@X X'.Q.N.b.t.,.V 0 ..p.",
"GX,X,X$.f b.{.@X%X;X;X;X3X3XeXaXmXmXhXaXmXmXaXtX+XL.XXA.oXyXxXjX-X`.j.r.r.Z.i.$XaXvXvXxXxXaXaXpX0X;X=X$X@X X'.Q.N.u.7.,.V 0 -.'.",
"LX3X<X+.g M.[..X=X;X;X;X%X3XpXaXhXmXhXdXmXaXaXtX%XoXK.r.V.oX;X@X_.w.@.6.r.j.i.=XpXvXvXxXxXaXpXpX0X;X$X=X X X_.B.m.c.0.,.M 0 -.&X",
"LXpX<X+.f v.[.}.$X$X$X%X%XeXtXaXaXhXhXcXvXxXaXpX+XoXF.6.6.Z.F.S.p.3. .3.e.r.i.=XuXaXxXaXaXpXpXeX8X;X=X=X X|._.M.M.c.q.,.l 8 =.&X",
"KXnX3X#.u c.D.{.$X$X%X%X;XeXtXyXaXaXaXaXvXvXxXaX+XA.w.J J 6.e.9.9.E a Y @.w.p.*XuXpXaXxXaXpXuX8X%X$X=X.X X|.Q.n.M.t.0.:.g - ..'.",
"KXZX2X4.g 0.D.[.$X$X$X%X;XeXtXaXaXdXaXaXvXvXxXvX%Xg.W p 6 T o.=.} p 6 i I +.w.*X9XpXpXeXeXpXeX8X%X$X$X X X|.B.b.M.t.0.*.f : Q p.",
"FXCX1Xw.h ,.B.[..X$X$X%X8XeXtXpXaXaXaXaXxXvXvXgX<X4.U J a z E ~ Y z m Y J W 9.'.;XeXeX3X<XeX8X8X$X$X$X{. X[.Q.M.M.t.0.{ y : m p.",
"VXnX1Xw.e X.B.[..X$X$X%X8XeXtXtXaXyXaXaXvXvXvXhXrXg.K J T Y Y J Y T Q T J W p.'.#XeXeX8X;X8X;X;X=X@X.X{.[._.B.N.M.c.8.[ y : B _.",
"!.=X1Xw.y *.m.[.}.$X$X%X6XeXtXpXaXyXaXaXaXvXmXhXyXL./ I ~ Q R m Y Q T L E 6.Q.'.@X;XeXeX;X%X;X8X=X@X{.{._.B.B.N.M.c.,.! 0 ; ~ '.",
"F M.1X4.w { m.D.{.$X$X%X6XeXtXtXaXyXyXaXaXgXhXhXhXqXj.+.} [ ! Z C V N B [ t._.'.@X%XeX8X%X$X;X8X$X}..X[._.B.B.M.b.t.,.S < ; ~ '.",
"v ;.yXg.e ` m.D.}.$X$X$X6X8XtXtXaXyXyXyXaXhXhXhXdXrX+Xw.} C V V g v f M Q y.W.'.@X;XeX6X+X$X8X8X$X@X.X[._.Q.B.M.M.t.>.V > = T Q.",
"3 M eX+Xj Z c.D.{.$X$X$X6X8XeXtXyXyXyXyXyXhXhXhXyXqX+X$.x l n v < < < r M *.t.'. X$X%X6X+X$X;X=X$X.X[.[.[.Q.Q.M.M.t.:.g : & E M.",
"3 v Q.8Xz N q.B.}.@X$X$X8X8X8XtXtXyXrXyXyXhXhXhXyX+XV.L i l g V q ; ; > y ] y.W.|. X$X$X%X$X$X$X@X.XD.D.[.Q.B.M.b.t.X.u : , ~ M.",
"4 b v.$XT l :.m.{.}.$X$X8X8X8XeXeXtXtXtXyXaXgXyXtXOX$.j e h h { N : : : = n &.t.M._.[.{.OX$X$X@X@X.X_.Q.Q.B.M.b.c.0.{ u : > Q v.",
"4 b v..X_ g { b.[..X$X$X6X6X8XeXqXqXqXwXyXgXtX6XOXD.T h s k k =...e , < - q M &.,.t.b.D.{.XX@X@X.X.X_.B.Q.B.M.b.t.y.[ y , 8 Q 2.",
"A b l..X} y ` c.[..X$X$X6X6X6X8XqXqXqXqXtXeX$X[.n.$.x l j x E 9.r.| a 8 q w e M S { ,.t.S.D.{.}.}..X_.N.B.M.M.c.y.0.! y > 5 [ T.",
"l.b ;..X} q Z z.[..X@XOX6X6X6X6X5X+X6X6X+XJ.B.q.} ) x N m  .Z.F.].F.+.e u k h h n n S { 5.u.D.{.{.[._.B.B.B.M.q.8.:.Z w = - ~ E.",
"/.F F [.} 8 l 0.D.}.@X$X6X5X5X6X5X+XOXJ.n.7.:.[ C Y Y m Y p.#X2X2X].r.J z Z C a g 0 f M R o.n.[.{.'._.B.Q.B.c.y.0.{ V t = - B l.",
"VXl.A |. ., k 0.B.{.{.OX$XOXOX+X+XK.A.e.} ' Z C N ) } E U 4.s.].k.s.( I J ~ [ l g 8 , w s C 5.D.{.[.|.Q.Q.M.0.0.:.{ V t ; , { !.",
"SX!.A ^.>.- h 0.m.[.}.}.$X6X%X+X+XP.w._ x N N k x } ^ W U / ( %.%./ ^ U I T ~ m l u , 8 q h ' n.{.|.Q.B.B.M.,.*.*.{ V t = t l.).",
"FX/.D ^.8.- g ,.m.D.{.OXOX$XOX+X+XA.@.x j s e j Y | W I U ^ ^ / ^ H U I J J J z a w 8 , 0 q C 5.[.'.M.M.M.c.*.[ :.] n 0 = f { v.",
"FXkXG ~.c.8 f 8.n.D.{.OXOX$X$X+XK.w.L s e w w j Y I H H P P H P H H H H H p p 7 6 9 w w w q k } n.B.M.M.v.t.*.] *.Z g , & ;.DXFX",
"KXVXR.T.2.8 8 :.b.m.D.}.}.OXOXOXH._ i e e e 9 i p p p P / %.%.a.%.s.s.s.( ^ I p p m N k e q i ) e.N.M.M.t.8.[ ` Z C g = * v.FXKX",
"KXSXT.G 1., , [ q.b.B.}.{.J.OXOXH._ i w j j w 9 7 H / s.k.].:XG.k.:XU.k.s.4.4.+.3.=.[ B h w w T q.B.M.t.8.X.) Z C S g $ : !.FXKX",
"PXSXT.D G r 1 Z 0.0.M.D.D.H.J.H.x.W 6 e N Z Y ~ | 4.s.h.k.:X2X:X:X:XU.j.s.j.p.p.e.q.0.} N e 9 B 5.b.c.,.*.[ ` V N S u # 2 /.FXKX",
"PXSXR.b D f - x X.*.q.n.n.D.H.D.6.L i l C  .7.n.H.G.G.G.k.k.G.].].U.k.j.j.Z.S.S.n.n.p.6.~ h w m ,.y.y.&.] ] ! N N V y # r ).KXKX",
"PXFX!.b T.;., s x R >.z.7.n.n.n.7.x i j ) x.C.P.P.+XK.G.j.g.g.g.g.w.4.w.i.S.Z.S.S.Z.i.e.=.N w z *.<.;.] Z V Z N l l q % d VXKXKX",
"PXFX/.A T./.0 5 s j ) O.5.7.x.x. .j i x 5.A.L.+XP.+XOXJ.Z.r.6.@. . .=.9.p.n.Z.S.S.Z.Z.i.0.C a k [ *.] S S M Z l h h 5 # v VXKXKX"
};
