/* XPM */
static char *result[] = {
/* columns rows colors chars-per-pixel */
"64 64 127 2 ",
"   c #808040",
".  c #7F7F40",
"X  c #818040",
"o  c #757A40",
"O  c #3D5E40",
"+  c #5D6E40",
"@  c #7F8040",
"#  c #7C7E40",
"$  c #466340",
"%  c #596C40",
"&  c #707840",
"*  c #0D4540",
"=  c #305740",
"-  c #717840",
";  c #0F4640",
":  c #3F5F40",
">  c #7D7E40",
",  c #265340",
"<  c #144940",
"1  c #747A40",
"2  c #637140",
"3  c #074340",
"4  c #516840",
"5  c #828140",
"6  c #456240",
"7  c #024140",
"8  c #586C40",
"9  c #506740",
"0  c #657240",
"q  c #2C5640",
"w  c #406040",
"e  c #104840",
"r  c #727940",
"t  c #7B7D40",
"y  c #255240",
"u  c #094440",
"i  c #677340",
"p  c #345A40",
"a  c #1E4F40",
"s  c #526940",
"d  c #014040",
"f  c #3B5D40",
"g  c #7E7F40",
"h  c #275340",
"j  c #174B40",
"k  c #0B4540",
"l  c #767B40",
"z  c #154A40",
"x  c #355A40",
"c  c #496440",
"v  c #003F40",
"b  c #305840",
"n  c #6A7540",
"m  c #0A4540",
"M  c #476340",
"N  c #1D4E40",
"B  c #064240",
"V  c #566B40",
"C  c #054240",
"Z  c #5B6D40",
"A  c #556A40",
"S  c #034140",
"D  c #215040",
"F  c #777B40",
"G  c #426140",
"H  c #335940",
"J  c #6C7640",
"K  c #2B5540",
"L  c #4B6540",
"P  c #003E40",
"I  c #134940",
"U  c #6F7740",
"Y  c #114840",
"T  c #7A7D40",
"R  c #124940",
"E  c #6E7740",
"W  c #124840",
"Q  c #416040",
"!  c #546A40",
"~  c #024040",
"^  c #315840",
"/  c #2F5740",
"(  c #697440",
")  c #737940",
"_  c #1B4D40",
"`  c #536940",
"'  c #5C6E40",
"]  c #436140",
"[  c #0E4740",
"{  c #5A6D40",
"}  c #164A40",
"|  c #1E4E40",
" . c #4D6640",
".. c #0D4640",
"X. c #4E6740",
"o. c #385B40",
"O. c #325840",
"+. c #4F6740",
"@. c #2E5740",
"#. c #0C4540",
"$. c #1A4C40",
"%. c #0A4440",
"&. c #667340",
"*. c #084340",
"=. c #104740",
"-. c #506840",
";. c #245240",
":. c #2A5440",
">. c #3E5F40",
",. c #687440",
"<. c #2A5540",
"1. c #818140",
"2. c #607040",
"3. c #064340",
"4. c #797C40",
"5. c #2D5640",
"6. c #003D40",
"7. c #2E5640",
"8. c #5F6F40",
"9. c #566A40",
"0. c #385C40",
"q. c #204F40",
"w. c #5E6F40",
"e. c #225140",
"r. c #265240",
"t. c #205040",
"y. c white",
/* pixels */
"                                                                                                                                ",
"                                                                                                                                ",
"                                                                                                                                ",
"                                                                                                                                ",
"                                                                                                                                ",
"                                                                                                                                ",
"                                                                                                                                ",
"                                                                                                                                ",
"                                                                                                                                ",
"                                                                                                                                ",
"                                                                                                                                ",
"                                                                                                                                ",
"                                                                                                                                ",
"                                                                                                                                ",
"                                                                                                                                ",
"                                                                                                                                ",
"                              .   X   .                                                         .   X   .                       ",
"                                o O + X @                                                         # $ % X                       ",
"                              X & * = .                                                           - ; : X                       ",
"                                > , < 1                                                         X 2 3 4 5                       ",
"                              @ X 6 7 8 X .                                                     5 9 3 2 X                       ",
"                                X 0 3 q >                                                       X w e r                         ",
"                                  t y u i X .                                                     p a t                         ",
"                                . X s d f                                                       g h h g                         ",
"                                    1 j k i X .                                                 l z x                           ",
"                                    X c v b >                                                 X n m M X                         ",
"                                      l N B + X .               .   X X   @                 . 5 V C Z 5                         ",
"                                    . X A S D F   @           .   & G Z .                     . H k J X                         ",
"                                        t K v L X                 : P I U X @                 - Y D T                           ",
"                                      . X 0 m R J X .       . X E W v v Q                 . 5 ! ~ M X                           ",
"                                          . O v ^ #           . O v H I Y E X .             . / u ( X                           ",
"                                        .   ) _ S ` X     . X ' 3 < - ] v :               X U [ y #                             ",
"                                          . X { B } E X .   l | ~  .X & I ..( X .       . X X.d L X .                           ",
"                                              g o.P O.#   X +.d @.#   X M v / >           T D #.J X                             ",
"                                            . X r $.S +.5 1 $.%.&.X .   o N C { X .   . X % S b g                               ",
"                                              . X { *.=.&.-.v x .     . X 8 S ;.T       > :.C + X .                             ",
"                                                  . >.v $._ k ,.X .       # <.~ ` 1.. X 2.3.h #                                 ",
"                                                .   4.5.v 6.7.g         . X 8.3 < ,.X # q ~ 9.X .                               ",
"                                                  .   o 6 <.+ X .           g 0.P q.) w.C e.4.                                  ",
"                                                    .   X .               .   l h P K r.S 8 X .                                 ",
"                                                                            . X E _ P P r.t                                     ",
"                                                                              . X 0 , t.+ X .                                   ",
"                                                                                    # t                                         ",
"                                                                                                                                ",
"                                                                                                                                ",
"                                                                                                                                ",
"                                                                                                                                ",
"                                                                                                                                ",
"                                                                                                                                ",
"                                                                                                                                ",
"                                                                                                                                ",
"                                                                                                                                ",
"                                                                                                                                ",
"                                                                                                                                ",
"                                                                                                                                ",
"                                                                                                                                ",
"                                                                                                                                ",
"                                                                                                                                ",
"                                                                                                                                ",
"                                                                                                                                ",
"                                                                                                                                ",
"                                                                                                                                ",
"                                                                                                                                ",
"                                                                                                                                "
};
